<svg xmlns="http://www.w3.org/2000/svg" viewBox="0 0 152 169">
  <g transform="matrix(0.2364 0 0 -0.2364 75.5 84.5)">
    <path fill="#d85a30" transform="translate(176.3, 44.43)" d="M 0 0 C -16.155 0 -29.251 13.095 -29.251 29.25 C -29.251 45.404 -16.155 58.5 0 58.5 C 16.154 58.5 29.25 45.404 29.25 29.25 C 29.25 13.095 16.154 0 0 0 M 140.219 -181.09 L 65.581 84.719 C 60.704 104.031 53.588 122.324 44.582 139.393 C 64.404 163.014 131.309 214.345 33.264 309.641 C 4.439 277.751 -32.978 279.193 -79.692 289.45 C -166.978 308.615 -265.025 305.671 -342.882 272.809 C -430.898 237.993 -493.189 152.2 -493.189 51.8 C -493.189 -12.112 -467.912 -70.086 -426.869 -112.798 C -415.564 -125.748 -403.505 -136.69 -391.492 -145.832 L -361.019 -244.657 L -167.436 -398.494 L -115.274 -321.202 L -11.995 -321.202 C 11.827 -321.202 31.697 -302.995 33.776 -279.265 L 40.946 -197.418 L 131.25 -193.476 C 137.533 -193.202 141.919 -187.144 140.219 -181.09"/>
  </g>
</svg>
