<?xml version="1.0" encoding="UTF-8" standalone="no" ?>
<!DOCTYPE svg PUBLIC "-//W3C//DTD SVG 1.1//EN" "http://www.w3.org/Graphics/SVG/1.1/DTD/svg11.dtd">
<svg xmlns="http://www.w3.org/2000/svg" xmlns:xlink="http://www.w3.org/1999/xlink" version="1.1" width="1280" height="1024" viewBox="0 0 1280 1024" xml:space="preserve">
<desc>Created with Fabric.js 5.3.0</desc>
<defs>
</defs>
<g transform="matrix(1 0 0 1 640 512)" id="background-logo"  >
<rect style="stroke: none; stroke-width: 0; stroke-dasharray: none; stroke-linecap: butt; stroke-dashoffset: 0; stroke-linejoin: miter; stroke-miterlimit: 4; fill: rgb(255,145,77); fill-rule: nonzero; opacity: 1;"  paint-order="stroke"  x="-640" y="-512" rx="0" ry="0" width="1280" height="1024" />
</g>
<g transform="matrix(2.6005757956222872 0 0 2.6005757956222872 639.3142793782208 369.5781789363402)" id="logo-logo"  >
<g style=""  paint-order="stroke"   >
		<g transform="matrix(0.236418113956758 0 0 -0.23641811395675794 0 0)"  >
<path style="stroke: none; stroke-width: 1; stroke-dasharray: none; stroke-linecap: butt; stroke-dashoffset: 0; stroke-linejoin: miter; stroke-miterlimit: 4; fill: rgb(255,255,255); fill-rule: nonzero; opacity: 1;"  paint-order="stroke"  transform=" translate(176.3007652288282, 44.42650000000003)" d="M 0 0 C -16.155 0 -29.251 13.095 -29.251 29.25 C -29.251 45.404 -16.155 58.5 0 58.5 C 16.154 58.5 29.25 45.404 29.25 29.25 C 29.25 13.095 16.154 0 0 0 M 140.219 -181.09 L 65.581 84.719 C 60.704 104.03099999999999 53.588 122.32399999999998 44.58200000000001 139.393 C 64.40400000000001 163.014 131.30900000000003 214.345 33.26400000000001 309.64099999999996 C 4.439000000000011 277.751 -32.977999999999994 279.193 -79.692 289.45 C -166.978 308.615 -265.025 305.671 -342.882 272.80899999999997 C -430.898 237.993 -493.189 152.2 -493.189 51.8 C -493.189 -12.112000000000002 -467.91200000000003 -70.086 -426.869 -112.79800000000002 C -415.564 -125.74800000000002 -403.50500000000005 -136.69000000000003 -391.492 -145.83200000000002 L -361.019 -244.65700000000004 L -167.436 -398.494 L -115.274 -321.202 L -11.995000000000005 -321.202 C 11.826999999999995 -321.202 31.696999999999996 -302.995 33.775999999999996 -279.265 L 40.946 -197.418 L 131.25 -193.476 C 137.533 -193.202 141.919 -187.144 140.219 -181.09" stroke-linecap="round" />
</g>
</g>
</g>
<g transform="matrix(1.9211538461538462 0 0 1.9211538461538462 638.5066047737841 737.079454292139)" id="text-logo"  >
<g style=""  paint-order="stroke"   >
		<g transform="matrix(1 0 0 1 0 0)" id="text-logo-path-0"  >
<path style="stroke: none; stroke-width: 0; stroke-dasharray: none; stroke-linecap: butt; stroke-dashoffset: 0; stroke-linejoin: miter; stroke-miterlimit: 4; fill: rgb(255,255,255); fill-rule: nonzero; opacity: 1;"  paint-order="stroke"  transform=" translate(-194.86499999999998, 40.6)" d="M 0.54 -3.26 L 0.54 0 L 34.26 0 L 34.26 -3.26 C 28.82 -3.26 25.42 -7.2 25.42 -15.86 L 25.42 -32.85 L 28.09 -36.11 L 39.15 -14.59 C 43.14 -6.84 44.23 -3.26 37.79 -3.26 L 37.79 0 L 67.88 0 L 67.88 -3.26 C 64.53 -3.26 61.04 -6.89 56.96 -14.59 L 38.79 -49.03 L 53.56 -66.84 C 59.04 -73.5 63.26 -77.94 67.33 -77.94 L 67.33 -81.2 L 42.23 -81.2 L 42.23 -77.94 C 49.12 -77.94 51.57 -73.59 46.13 -66.84 L 25.42 -41.23 L 25.42 -65.34 C 25.42 -74 28.82 -77.94 34.26 -77.94 L 34.26 -81.2 L 0.54 -81.2 L 0.54 -77.94 C 5.98 -77.94 9.38 -74 9.38 -65.34 L 9.38 -15.86 C 9.38 -7.2 5.98 -3.26 0.54 -3.26 Z M 91.58 -3.26 L 91.58 0 L 125.29 0 L 125.29 -3.26 C 119.85 -3.26 116.45 -7.2 116.45 -15.86 L 116.45 -39.47 L 120.17 -39.47 L 133.22 -12.82 C 136.25 -6.57 133.26 -3.26 128.05 -3.26 L 128.05 0 L 159.5 0 L 159.5 -3.26 C 156.01 -3.26 153.43 -6.84 149.44 -14.5 L 135.48 -41.42 C 145.23 -45.13 150.3 -53.56 150.3 -61.72 C 150.3 -71.64 145.27 -81.2 123.2 -81.2 L 91.58 -81.2 L 91.58 -77.94 C 97.01 -77.94 100.41 -75.49 100.41 -66.84 L 100.41 -15.86 C 100.41 -7.2 97.01 -3.26 91.58 -3.26 Z M 116.45 -45.63 L 116.45 -74.04 L 122.43 -74.04 C 130.86 -74.04 133.99 -70.6 133.99 -61.35 C 133.99 -50.89 130.27 -45.63 122.84 -45.63 Z M 183.61 0 L 217.32 0 L 217.32 -3.26 C 211.88 -3.26 208.48 -7.2 208.48 -15.86 L 208.48 -65.34 C 208.48 -74 211.88 -77.94 217.32 -77.94 L 217.32 -81.2 L 183.61 -81.2 L 183.61 -77.94 C 189.04 -77.94 192.44 -74 192.44 -65.34 L 192.44 -15.86 C 192.44 -7.2 189.04 -3.26 183.61 -3.26 Z M 253.66 -65.34 L 266.98 -37.2 L 266.98 -15.86 C 266.98 -7.2 263.58 -3.26 258.15 -3.26 L 258.15 0 L 291.86 0 L 291.86 -3.26 C 286.42 -3.26 283.02 -7.2 283.02 -15.86 L 283.02 -37.2 L 295.66 -65.34 C 299.2 -73.18 302.14 -77.94 305.72 -77.94 L 305.72 -81.2 L 282.43 -81.2 L 282.43 -77.94 C 287.92 -77.94 292.22 -73.23 288.82 -65.34 L 279.13 -42.91 L 268.34 -65.34 C 264.58 -73.13 267.98 -77.94 275.05 -77.94 L 275.05 -81.2 L 243.15 -81.2 L 243.15 -77.94 C 246.5 -77.94 249.94 -73.18 253.66 -65.34 Z M 354.57 -3.26 L 354.57 0 L 389.19 0 L 389.19 -3.26 C 385.38 -3.26 383.21 -7.48 380.81 -15.86 L 362.23 -81.2 L 351.63 -81.2 L 332.28 -17.26 C 329.29 -7.43 327.25 -4.44 323.49 -3.26 L 323.49 0 L 347.68 0 L 347.68 -3.26 C 342.2 -3.26 336.9 -7.57 339.3 -15.86 L 342.61 -27.41 L 360.78 -27.41 L 363.86 -15.86 C 366.08 -7.48 361.64 -3.26 354.57 -3.26 Z M 344.24 -34.57 L 352.3 -62.49 L 359.42 -34.57 Z" stroke-linecap="round" />
</g>
</g>
</g>
</svg>